<svg xmlns="http://www.w3.org/2000/svg" width="293" height="204"><path d="M16.343 203.972c-.784-12.538 2.841-40.802 5.584-52.558 2.743-11.755 4.36-24.214 4.36-24.214L4 112h25.862l7.054-7.648-25.471-30.178 35.659 12.342 2.351-2.451-4.31-62.354 57.21 43.08s38.909 1.382 58.387 30.161c18.956 28.006 25.409 64.612 25.801 68.531" fill="#53606c" stroke="#fff" stroke-width="4" stroke-linecap="round" stroke-linejoin="round" stroke-miterlimit="10"/><path d="M179.698 155.677s12.574 2.946 17.036 14.312c4.463 11.365 9.072 20.172 3.194 28.4-5.878 8.229-13.386 6.073-13.386 6.073l-170.2.255 15.479-29.446 147.877-19.594z" fill="#53606c"/><path d="M189.349 164.688c-3.527-2.351-7.055-1.566-8.622 2.352-1.566 3.918-1.565 7.838 1.568 9.013 3.134 1.176-2.204 12.931 2.229 19.593 4.433 6.661 9.92 12.148 15.405 2.743 5.485-9.404.392-30.956-14.107-39.969M77.277 178.565s7.479 8.875 12.388 13.113c4.311 3.722 9.948 5.926 9.948 5.926s-2.722-16.003 10.188-16.849c8.229-.54 10.58 5.484 10.58 5.484s12.322-2.854 19.201 4.703c4.013 4.408 3.869 10.118 3.527 13.028M69.832 191.269s5.094 8.49 13.714 12.703M96.478 112.815l18.809-10.823M144.128 97.682l11.912 6.269M108.625 127.462l6.662-3.918M147.419 118.45l5.878 2.352M118.03 145.88s7.053 2.742 10.58 0c3.527-2.743 8.229-6.662 11.756-6.662 3.526 0 8.465 1.959 9.719 0 1.253-1.958 3.212-4.702 3.212-4.702" fill="none" stroke="#fff" stroke-width="3.527" stroke-linecap="round" stroke-linejoin="round" stroke-miterlimit="10"/><path fill="none" stroke="#fff" stroke-width="4" stroke-linecap="round" stroke-linejoin="round" stroke-miterlimit="10" d="M90.404 144.214l4.605 4.072L96.478 146h3.918l1.568-4.447 2.351 2.993M162.01 127.266l4.99 3.723v-5.878l3.774 2.939"/></svg>
