<svg xmlns="http://www.w3.org/2000/svg"><symbol id="mastodon-svg-logo-full" viewBox="0 0 713.35878 175.8678">
  <g
     id="use36"
     transform="matrix(2.5395151,0,0,2.4773659,0.87202184,0.22227648)">
    <path
       fill="#94a3fc"
       d="M 41.928999,0.07499997 C 39.982999,0.60700002 36.707001,5.9430005 32.209998,15.860001 22.982,16.288001 15.554,19.664001 10.155,25.960002 1.548,35.998004 0,50.998004 0,60.488005 c 0,5.015 0.43199999,8.491001 0.48299998,8.885 A 1.5,1.5000001 0 0 0 3.458,68.987006 c -0.012,-0.093 -0.4200001,-3.394001 -0.4200001,-8.259001 0,-9.049 1.411,-23.510002 9.4000001,-32.821003 5.01,-5.838001 12.007,-8.903001 20.797,-9.111001 a 1.5,1.5000001 0 0 0 1.333,-0.885 c 2.518,-5.612 5.784001,-11.9240005 7.516001,-14.1760008 0.810998,2.9380003 1.658998,10.7640008 2.064998,17.5790008 a 1.5,1.5000001 0 0 0 2.215,1.228001 c 3.236,-1.761 7.011,-3.635001 9.257,-4.551001 -0.937999,2.02 -2.76,5.267 -4.467999,8.037 a 1.5,1.5000001 0 0 0 1.687999,2.23 c 2.601001,-0.738999 5.481,-1.135 6.493001,-0.923999 -0.198001,0.852 -1.961001,2.878 -3.905001,4.420001 a 1.497,1.4970001 0 0 0 -0.243,2.107 1.5,1.5000001 0 0 0 2.107,0.244 c 2.085002,-1.652 6.704001,-5.799001 4.57,-8.629002 -1.036999,-1.375 -3.628999,-1.37 -6.338998,-0.901 2.918999,-4.998 3.760998,-7.297 3.760998,-8.455 0,-0.769 -0.36,-1.049 -0.704,-1.317 -0.695999,-0.542 -1.679998,-1.24 -11.593999,4.006 C 46.228,7.6710006 45.082,1.4200001 43.564999,0.34899999 a 1.909,1.9090001 0 0 0 -1.636,-0.27400002 z"
       id="path125"
       style="stroke-width:1" />
    <g
       fill="#ffffff"
       id="g129">
      <path
         d="m 23.101,66.827 c -0.458,0 -0.795,-0.08 -1.014,-0.237 -0.221,-0.16 -0.331,-0.479 -0.331,-0.956 v -2.387 c 0,-0.477 0.109,-0.806 0.331,-0.984 0.219,-0.18 0.557,-0.268 1.014,-0.268 h 12.798 c 0.238,0 0.413,-0.054 0.522,-0.164 0.109,-0.11 0.165,-0.264 0.165,-0.464 V 53.345 A 0.822,0.822 0 0 0 36.421,52.851 C 36.312,52.702 36.137,52.628 35.899,52.628 H 20.653 c -0.458,0 -0.796,-0.079 -1.015,-0.239 C 19.419,52.23 19.31,51.912 19.31,51.434 v -2.386 c 0,-0.477 0.109,-0.807 0.328,-0.985 0.219,-0.178 0.557,-0.268 1.015,-0.268 H 37.42 c 1.77,0 3.108,0.432 4.011,1.299 0.906,0.864 1.359,2.24 1.359,4.13 v 8.144 c 0,1.93 -0.453,3.322 -1.359,4.177 -0.903,0.855 -2.242,1.283 -4.011,1.283 H 23.101 Z m 1.402,-21.956 c -0.478,0 -0.806,-0.108 -0.984,-0.328 C 23.34,44.345 23.25,44.025 23.25,43.59 v -2.148 c 0,-0.578 0.089,-0.955 0.269,-1.134 0.179,-0.18 0.507,-0.268 0.984,-0.268 h 13.036 c 0.518,0 0.865,0.088 1.044,0.268 0.179,0.179 0.27,0.556 0.27,1.134 v 2.148 c 0,0.436 -0.091,0.755 -0.27,0.953 -0.179,0.22 -0.526,0.328 -1.044,0.328 z M 49.668,40.04 h 3.969 c 0.317,0 0.586,0.123 0.804,0.373 0.22,0.248 0.328,0.53 0.328,0.85 v 4.266 h 4.417 c 1.769,0 3.106,0.432 4.012,1.296 0.903,0.867 1.356,2.243 1.356,4.133 v 10.41 c 0,1.93 -0.453,3.322 -1.356,4.177 -0.906,0.855 -2.243,1.283 -4.012,1.283 h -1.911 c -0.457,0 -0.796,-0.08 -1.014,-0.237 -0.219,-0.16 -0.328,-0.479 -0.328,-0.956 v -2.387 c 0,-0.477 0.109,-0.806 0.328,-0.984 0.218,-0.18 0.557,-0.268 1.014,-0.268 h 0.388 c 0.239,0 0.412,-0.054 0.522,-0.164 0.11,-0.11 0.164,-0.264 0.164,-0.464 V 51.075 a 0.804,0.804 0 0 0 -0.164,-0.491 c -0.11,-0.149 -0.283,-0.225 -0.522,-0.225 h -2.895 v 11.008 c 0,1.93 -0.452,3.322 -1.356,4.177 -0.905,0.855 -2.243,1.283 -4.012,1.283 h -2.029 c -0.457,0 -0.795,-0.08 -1.013,-0.237 -0.22,-0.16 -0.329,-0.479 -0.329,-0.956 v -2.387 c 0,-0.477 0.109,-0.806 0.329,-0.984 0.218,-0.18 0.556,-0.268 1.013,-0.268 h 0.507 c 0.24,0 0.413,-0.054 0.522,-0.164 0.11,-0.11 0.164,-0.264 0.164,-0.464 V 50.359 h -1.253 c -0.458,0 -0.795,-0.077 -1.014,-0.237 -0.218,-0.159 -0.328,-0.477 -0.328,-0.955 v -2.386 c 0,-0.479 0.11,-0.807 0.328,-0.985 0.219,-0.179 0.556,-0.268 1.014,-0.268 h 1.253 v -4.266 c 0,-0.319 0.11,-0.602 0.329,-0.85 0.219,-0.249 0.478,-0.372 0.775,-0.372 z m 23.001,13.392 c 0.058,0.358 -0.03,0.662 -0.27,0.91 -0.24,0.248 -0.537,0.362 -0.895,0.343 h -3.61 c -0.496,0.02 -0.843,-0.061 -1.044,-0.239 -0.198,-0.179 -0.336,-0.516 -0.417,-1.014 l -1.76,-10.738 c -0.08,-0.498 -0.026,-0.83 0.164,-1 0.188,-0.169 0.522,-0.253 0.999,-0.253 h 3.641 c 0.576,0 0.953,0.084 1.132,0.253 0.179,0.17 0.308,0.502 0.388,1 z m 8.651,13.425 c -1.771,0 -3.104,-0.432 -3.999,-1.299 -0.895,-0.864 -1.341,-2.262 -1.341,-4.191 v -7.458 c 0,-1.889 0.446,-3.265 1.341,-4.13 0.895,-0.865 2.228,-1.298 3.999,-1.298 h 0.03 v -7.279 c 0.02,-0.298 0.145,-0.567 0.373,-0.805 0.229,-0.239 0.542,-0.357 0.938,-0.357 h 3.61 c 0.358,0 0.662,0.118 0.91,0.357 0.248,0.237 0.373,0.507 0.373,0.805 v 7.279 h 10.708 c 0.479,0 0.796,0.084 0.956,0.254 0.16,0.168 0.239,0.512 0.239,1.029 v 2.415 c 0,0.479 -0.071,0.796 -0.209,0.955 -0.14,0.16 -0.468,0.24 -0.986,0.24 H 82.931 c -0.438,0 -0.658,0.198 -0.658,0.595 v 7.397 c 0,0.399 0.22,0.598 0.658,0.598 h 15.332 c 0.518,0 0.846,0.08 0.986,0.239 0.138,0.159 0.209,0.477 0.209,0.954 v 2.416 c 0,0.518 -0.08,0.86 -0.239,1.028 -0.16,0.171 -0.477,0.255 -0.956,0.255 H 81.32 Z M 96.831,44.691 c 0,0.319 -0.108,0.598 -0.328,0.837 -0.218,0.237 -0.507,0.358 -0.865,0.358 H 93.58 c -0.399,0 -0.712,-0.121 -0.94,-0.358 a 1.29,1.29 0 0 1 -0.373,-0.837 v -4.594 c 0.02,-0.297 0.145,-0.567 0.373,-0.804 0.229,-0.24 0.542,-0.358 0.94,-0.358 h 2.058 c 0.358,0 0.647,0.118 0.865,0.358 0.22,0.236 0.328,0.507 0.328,0.804 z m 5.491,0 c 0,0.319 -0.11,0.598 -0.33,0.837 -0.218,0.237 -0.507,0.358 -0.865,0.358 h -2.058 c -0.399,0 -0.711,-0.121 -0.94,-0.358 a 1.29,1.29 0 0 1 -0.373,-0.837 v -4.594 c 0.02,-0.297 0.145,-0.567 0.373,-0.804 0.229,-0.24 0.542,-0.358 0.94,-0.358 h 2.058 c 0.358,0 0.647,0.118 0.865,0.358 0.22,0.236 0.33,0.507 0.33,0.804 z m 25.852,22.136 h -7.367 c -1.771,0 -3.108,-0.428 -4.014,-1.283 -0.903,-0.854 -1.356,-2.247 -1.356,-4.177 v -5.249 c 0,-0.239 -0.054,-0.412 -0.164,-0.522 -0.11,-0.109 -0.282,-0.164 -0.522,-0.164 h -2.208 l -3.371,10.173 c -0.198,0.498 -0.397,0.834 -0.595,1.014 -0.201,0.179 -0.548,0.259 -1.044,0.239 h -3.641 a 1.102,1.102 0 0 1 -0.895,-0.343 1.074,1.074 0 0 1 -0.297,-0.91 l 7.995,-24.342 c 0.237,-0.498 0.446,-0.83 0.625,-1.001 0.179,-0.168 0.457,-0.252 0.834,-0.252 h 4.357 c 0.477,0 0.761,0.084 0.85,0.252 0.09,0.171 0.045,0.503 -0.134,1.001 l -3.104,9.336 h 2.148 c 1.771,0 3.108,0.428 4.014,1.283 0.904,0.854 1.356,2.247 1.356,4.176 v 5.31 c 0,0.2 0.054,0.354 0.164,0.464 0.11,0.11 0.285,0.164 0.522,0.164 h 5.847 c 0.458,0 0.796,0.088 1.016,0.268 0.218,0.179 0.328,0.508 0.328,0.984 v 2.387 c 0,0.478 -0.11,0.796 -0.328,0.956 -0.22,0.156 -0.559,0.236 -1.016,0.236 z"
         id="path127" />
    </g>
    <g
       opacity="0.75"
       fill="#ffffff"
       id="g133">
      <path
         d="m 151.247,66.86 c -2.242,0 -3.367,-1.432 -3.367,-4.306 v -6.189 a 0.83,0.83 0 0 1 0.242,-0.605 0.8,0.8 0 0 1 0.589,-0.235 0.83,0.83 0 0 1 0.596,0.235 0.842,0.842 0 0 1 0.241,0.605 v 5.988 c 0,1.072 0.167,1.848 0.507,2.338 0.339,0.488 0.905,0.728 1.695,0.728 0.544,0 1.051,-0.141 1.508,-0.431 0.466,-0.285 0.961,-0.757 1.5,-1.412 a 0.397,0.397 0 0 0 0.094,-0.259 v -6.952 c 0,-0.243 0.086,-0.44 0.25,-0.605 a 0.843,0.843 0 0 1 0.594,-0.235 c 0.223,0 0.423,0.077 0.581,0.235 0.158,0.165 0.24,0.362 0.24,0.605 v 9.559 a 0.657,0.657 0 0 1 -0.2,0.478 0.646,0.646 0 0 1 -0.484,0.201 0.695,0.695 0 0 1 -0.507,-0.201 0.75,0.75 0 0 1 -0.232,-0.478 l -0.077,-1.065 c -0.018,-0.011 -0.031,-0.021 -0.054,-0.021 -0.017,0 -0.032,0.011 -0.05,0.021 -0.562,0.656 -1.127,1.154 -1.714,1.495 -0.579,0.338 -1.233,0.506 -1.952,0.506 z m 23.136,-0.498 a 0.783,0.783 0 0 1 -0.568,0.24 0.78,0.78 0 0 1 -0.572,-0.24 A 0.771,0.771 0 0 1 173,65.803 V 51.076 c 0,-0.216 0.084,-0.4 0.243,-0.564 a 0.786,0.786 0 0 1 0.572,-0.24 c 0.219,0 0.407,0.082 0.568,0.24 0.162,0.164 0.24,0.349 0.24,0.564 v 10.478 c 0,0.012 0.013,0.02 0.03,0.02 a 0.077,0.077 0 0 0 0.053,-0.02 l 4.326,-5.312 a 1.837,1.837 0 0 1 1.505,-0.718 c 0.183,0 0.317,0.08 0.391,0.25 0.071,0.167 0.055,0.317 -0.05,0.45 l -3.009,3.605 a 0.213,0.213 0 0 0 -0.016,0.262 l 3.625,5.73 a 0.49,0.49 0 0 1 0.1,0.282 0.442,0.442 0 0 1 -0.08,0.24 0.465,0.465 0 0 1 -0.442,0.258 c -0.6,0 -1.063,-0.258 -1.38,-0.78 l -2.789,-4.565 c -0.049,-0.083 -0.109,-0.092 -0.178,-0.023 l -1.981,2.324 a 0.382,0.382 0 0 0 -0.104,0.258 v 1.988 a 0.758,0.758 0 0 1 -0.241,0.559 z m 25.079,0.498 c -0.938,0 -1.706,-0.271 -2.313,-0.818 -0.612,-0.546 -0.915,-1.309 -0.915,-2.285 0,-1.187 0.533,-2.105 1.603,-2.755 1.069,-0.647 2.779,-1.102 5.129,-1.369 0.109,-0.015 0.154,-0.076 0.145,-0.182 -0.017,-1.888 -0.798,-2.826 -2.344,-2.826 -0.908,0 -1.851,0.286 -2.808,0.862 a 0.645,0.645 0 0 1 -0.498,0.076 0.604,0.604 0 0 1 -0.404,-0.278 0.7,0.7 0 0 1 -0.071,-0.528 0.666,0.666 0 0 1 0.312,-0.416 c 1.269,-0.73 2.514,-1.099 3.727,-1.099 1.298,0 2.246,0.398 2.848,1.191 0.597,0.794 0.899,1.894 0.899,3.299 v 6.191 a 0.653,0.653 0 0 1 -0.196,0.478 0.663,0.663 0 0 1 -0.483,0.201 0.714,0.714 0 0 1 -0.502,-0.201 0.787,0.787 0 0 1 -0.26,-0.478 l -0.06,-0.644 c 0,-0.025 -0.013,-0.039 -0.029,-0.039 a 0.193,0.193 0 0 0 -0.073,0.019 c -1.271,1.068 -2.507,1.601 -3.707,1.601 z m 0.459,-1.34 a 3.39,3.39 0 0 0 1.513,-0.354 c 0.49,-0.23 1.01,-0.597 1.573,-1.088 a 0.36,0.36 0 0 0 0.103,-0.264 v -2.923 c 0,-0.096 -0.035,-0.141 -0.103,-0.141 h -0.042 c -1.841,0.227 -3.155,0.573 -3.936,1.033 -0.777,0.462 -1.17,1.084 -1.17,1.872 0,0.63 0.19,1.095 0.567,1.404 0.386,0.306 0.879,0.461 1.495,0.461 z m 25.068,1.34 c -1.421,0 -2.537,-0.503 -3.359,-1.519 -0.826,-1.018 -1.232,-2.434 -1.232,-4.252 0,-1.747 0.474,-3.158 1.418,-4.234 0.956,-1.078 2.084,-1.613 3.408,-1.613 0.591,0 1.117,0.096 1.584,0.291 0.472,0.193 0.961,0.505 1.482,0.93 0.03,0.013 0.053,0.013 0.071,0 a 0.065,0.065 0 0 0 0.03,-0.06 l -0.061,-1.785 v -3.525 c 0,-0.225 0.079,-0.417 0.243,-0.581 a 0.786,0.786 0 0 1 0.575,-0.24 c 0.229,0 0.427,0.082 0.594,0.24 0.169,0.164 0.25,0.356 0.25,0.581 v 14.831 a 0.632,0.632 0 0 1 -0.209,0.478 0.684,0.684 0 0 1 -0.493,0.201 0.809,0.809 0 0 1 -0.511,-0.189 0.689,0.689 0 0 1 -0.251,-0.489 l -0.075,-0.644 c 0,-0.013 -0.011,-0.021 -0.022,-0.021 -0.014,0 -0.025,0.008 -0.04,0.021 -1.071,1.053 -2.205,1.579 -3.402,1.579 z m 0.338,-1.4 c 0.973,0 1.933,-0.494 2.885,-1.483 a 0.325,0.325 0 0 0 0.119,-0.26 v -5.691 a 0.314,0.314 0 0 0 -0.119,-0.241 c -0.896,-0.759 -1.804,-1.141 -2.727,-1.141 -0.945,0 -1.745,0.415 -2.384,1.253 -0.643,0.834 -0.961,1.895 -0.961,3.178 0,1.36 0.281,2.432 0.839,3.217 0.563,0.777 1.344,1.168 2.348,1.168 z m 29.139,-0.17 c -0.999,1.05 -2.201,1.57 -3.616,1.57 -1.421,0 -2.619,-0.521 -3.606,-1.57 -0.989,-1.045 -1.487,-2.447 -1.487,-4.2 0,-1.786 0.498,-3.212 1.487,-4.264 0.987,-1.057 2.19,-1.584 3.617,-1.584 1.42,0 2.626,0.527 3.616,1.584 0.985,1.052 1.483,2.478 1.483,4.264 0,1.752 -0.5,3.155 -1.494,4.2 z m -6.041,-1.022 c 0.628,0.811 1.439,1.21 2.436,1.21 0.994,0 1.805,-0.402 2.431,-1.218 0.633,-0.817 0.946,-1.874 0.946,-3.171 0,-1.32 -0.313,-2.394 -0.946,-3.215 -0.626,-0.819 -1.437,-1.23 -2.431,-1.23 -0.996,0 -1.808,0.411 -2.436,1.23 -0.632,0.821 -0.944,1.895 -0.944,3.215 0,1.312 0.312,2.369 0.944,3.179 z m 24.742,2.094 a 0.799,0.799 0 0 1 -0.583,0.24 0.823,0.823 0 0 1 -0.591,-0.24 0.775,0.775 0 0 1 -0.254,-0.58 v -9.578 c 0,-0.189 0.07,-0.349 0.201,-0.482 a 0.658,0.658 0 0 1 0.485,-0.197 0.72,0.72 0 0 1 0.497,0.19 0.696,0.696 0 0 1 0.244,0.489 l 0.097,0.898 c 0,0.03 0.011,0.044 0.029,0.044 a 0.07,0.07 0 0 0 0.052,-0.021 c 0.612,-0.605 1.214,-1.065 1.802,-1.393 a 3.857,3.857 0 0 1 1.908,-0.491 c 2.256,0 3.385,1.446 3.385,4.328 v 6.193 a 0.828,0.828 0 0 1 -0.244,0.59 0.78,0.78 0 0 1 -0.589,0.249 0.82,0.82 0 0 1 -0.602,-0.249 0.807,0.807 0 0 1 -0.251,-0.59 v -5.994 c 0,-1.068 -0.171,-1.849 -0.521,-2.343 -0.35,-0.495 -0.897,-0.738 -1.659,-0.738 -0.55,0 -1.054,0.132 -1.506,0.407 -0.455,0.273 -0.976,0.707 -1.562,1.292 a 0.345,0.345 0 0 0 -0.102,0.264 v 7.131 a 0.797,0.797 0 0 1 -0.236,0.581 z"
         id="path131" />
    </g>
  </g>
</symbol>
</svg>
