<?xml version="1.0" encoding="utf-8"?>
<svg width="79" height="79" viewBox="0 0 79 75" xmlns="http://www.w3.org/2000/svg" xmlns:xlink="http://www.w3.org/1999/xlink">
  <symbol id="logo-symbol-icon">
    <path d="M 76.828 74.625 L 1.303 74.625 C 1.303 74.625 -6.552 18.601 38.233 17.618 C 38.233 17.618 47.27 -1.097 49.465 0.342 C 51.66 1.782 52.949 21.935 52.949 21.935 C 52.949 21.935 67.305 12.28 68.467 13.122 C 69.624 13.961 62.932 28.551 62.932 28.551 C 62.932 28.551 75.365 26.823 76.772 28.551 C 78.526 30.711 71.236 38.839 71.236 38.839 C 75.718 43.898 76.828 74.625 76.828 74.625 Z M 48.047 68.996 C 50.585 68.996 52.505 68.428 53.804 67.287 C 55.102 66.146 55.75 64.291 55.75 61.72 L 55.75 50.866 C 55.75 48.349 55.102 46.514 53.804 45.359 C 52.506 44.208 50.586 43.63 48.047 43.63 L 23.995 43.63 C 23.339 43.63 22.853 43.751 22.539 43.989 C 22.225 44.227 22.069 44.665 22.069 45.299 L 22.069 48.481 C 22.069 49.116 22.225 49.541 22.539 49.752 C 22.853 49.965 23.339 50.071 23.995 50.071 L 45.864 50.071 C 46.208 50.071 46.457 50.169 46.614 50.37 C 46.77 50.567 46.848 50.787 46.848 51.026 L 46.848 61.719 C 46.848 61.985 46.77 62.189 46.614 62.336 C 46.457 62.481 46.208 62.553 45.864 62.553 L 27.507 62.553 C 26.85 62.553 26.366 62.675 26.051 62.913 C 25.734 63.149 25.578 63.589 25.578 64.225 L 25.578 67.405 C 25.578 68.044 25.734 68.464 26.051 68.677 C 26.366 68.889 26.85 68.994 27.507 68.994 L 48.047 68.994 L 48.047 68.996 Z M 48.217 39.734 C 48.959 39.734 49.459 39.588 49.716 39.298 C 49.972 39.031 50.1 38.61 50.1 38.024 L 50.1 35.161 C 50.1 34.395 49.972 33.89 49.716 33.652 C 49.459 33.415 48.959 33.295 48.217 33.295 L 29.518 33.295 C 28.832 33.295 28.362 33.415 28.106 33.652 C 27.848 33.89 27.72 34.395 27.72 35.161 L 27.72 38.024 C 27.72 38.61 27.848 39.031 28.106 39.298 C 28.362 39.588 28.832 39.734 29.518 39.734 L 48.217 39.734 Z" fill="currentColor" style=""/>
  </symbol>
  <use transform="matrix(1, 0, 0, 1, 0, 0)" xlink:href="#logo-symbol-icon"/>
</svg>