<svg xmlns="http://www.w3.org/2000/svg" width="140" height="150"><path d="M140 150H2.571s-14.294-109.727 67.2-111.651c0 0 16.443-36.653 20.437-33.835 3.995 2.821 6.34 42.29 6.34 42.29s26.123-18.909 28.238-17.261c2.105 1.644-10.073 30.22-10.073 30.22s22.625-3.384 25.185 0c3.191 4.23-10.074 20.148-10.074 20.148C137.979 89.82 140 150 140 150zm-52.371-11.024c4.618 0 8.111-1.113 10.474-3.348s3.541-5.868 3.541-10.905v-21.255c0-4.931-1.179-8.524-3.541-10.786-2.362-2.256-5.855-3.387-10.474-3.387H43.862c-1.194 0-2.078.237-2.65.704-.571.466-.855 1.324-.855 2.564v6.233c0 1.244.284 2.076.855 2.489.572.418 1.456.625 2.65.625h39.794c.625 0 1.078.193 1.364.585.285.387.427.818.427 1.284v20.942c0 .524-.142.924-.427 1.21-.286.286-.739.427-1.364.427H50.252c-1.194 0-2.076.237-2.648.704-.578.462-.862 1.324-.862 2.568v6.229c0 1.249.284 2.076.862 2.494.572.413 1.454.62 2.648.62h37.377zm.308-57.311c1.351 0 2.261-.286 2.728-.855.466-.521.699-1.349.699-2.492V72.71c0-1.504-.233-2.492-.699-2.956-.467-.466-1.377-.701-2.728-.701H53.912c-1.248 0-2.104.235-2.569.701-.469.464-.702 1.452-.702 2.956v5.608c0 1.144.233 1.971.702 2.492.466.569 1.321.855 2.569.855h34.025z" fill="#94a3ff"/></svg>