<?xml version="1.0" encoding="UTF-8" standalone="no"?>
<svg
   xmlns:dc="http://purl.org/dc/elements/1.1/"
   xmlns:cc="http://creativecommons.org/ns#"
   xmlns:rdf="http://www.w3.org/1999/02/22-rdf-syntax-ns#"
   xmlns:svg="http://www.w3.org/2000/svg"
   xmlns="http://www.w3.org/2000/svg"
   xmlns:xlink="http://www.w3.org/1999/xlink"
   version="1.1"
   id="svg22">
  <metadata
     id="metadata28">
    <rdf:RDF>
      <cc:Work
         rdf:about="">
        <dc:format>image/svg+xml</dc:format>
        <dc:type
           rdf:resource="http://purl.org/dc/dcmitype/StillImage" />
        <dc:title></dc:title>
      </cc:Work>
    </rdf:RDF>
  </metadata>
  <defs
     id="defs26">
    <symbol
       id="mastodon-svg-logo">
      <path
         d="M 140,150 H 2.571 c 0,0 -14.294,-109.727002 67.200001,-111.651001 0,0 16.443,-36.6529989 20.437,-33.834999 3.995,2.8209999 6.34,42.289998 6.34,42.289998 0,0 26.122999,-18.909 28.237999,-17.261 2.105,1.644001 -10.073,30.22 -10.073,30.22 0,0 22.625,-3.384 25.185,0 3.191,4.23 -10.074,20.147999 -10.074,20.147999 C 137.979,89.819996 140,150 140,150 Z M 87.629,138.97599 c 4.618,0 8.111001,-1.113 10.474001,-3.348 2.362999,-2.23499 3.540999,-5.868 3.540999,-10.905 V 103.468 c 0,-4.931004 -1.179,-8.524004 -3.540999,-10.786004 -2.362,-2.256 -5.855,-3.386999 -10.474001,-3.386999 H 43.862001 c -1.194,0 -2.078,0.236999 -2.65,0.704 -0.571,0.466 -0.855,1.323999 -0.855,2.563999 v 6.233 c 0,1.244004 0.284,2.076004 0.855,2.489004 0.572,0.418 1.456,0.625 2.65,0.625 h 39.794 c 0.625,0 1.078,0.193 1.364,0.585 0.284999,0.387 0.427,0.818 0.427,1.284 v 20.942 c 0,0.524 -0.142001,0.924 -0.427,1.21 -0.286,0.28599 -0.739,0.42699 -1.364,0.42699 h -33.404 c -1.194,0 -2.076,0.23701 -2.648,0.704 -0.578,0.462 -0.862001,1.32401 -0.862001,2.568 v 6.22901 c 0,1.24899 0.284001,2.07599 0.862001,2.49399 0.572,0.41301 1.454,0.62 2.648,0.62 H 87.629 Z m 0.308001,-57.310993 c 1.351,0 2.260999,-0.286001 2.727999,-0.855001 0.466001,-0.521 0.699002,-1.348999 0.699002,-2.492 v -5.607999 c 0,-1.504 -0.233001,-2.492 -0.699002,-2.955999 -0.467,-0.466001 -1.376999,-0.701 -2.727999,-0.701 H 53.912 c -1.247999,0 -2.104,0.234999 -2.569,0.701 -0.469,0.463999 -0.702,1.451999 -0.702,2.955999 v 5.607999 c 0,1.144001 0.233,1.971 0.702,2.492 0.466001,0.569 1.321001,0.855001 2.569,0.855001 z"
         fill="#94a3ff"
         id="path20"
         style="stroke-width:1" />
    </symbol>
  </defs>
  <use
     xlink:href="#mastodon-svg-logo"
     id="use42" />
</svg>
