<?xml version="1.0" encoding="utf-8"?>
<svg width="65" height="65" viewBox="0 0 61 65" fill="none" xmlns="http://www.w3.org/2000/svg">
  <path d="M 60.378 64.318 L 0.786 64.318 C 0.786 64.318 -5.412 16.42 29.925 15.58 C 29.925 15.58 37.055 -0.421 38.787 0.81 C 40.519 2.041 41.536 19.27 41.536 19.27 C 41.536 19.27 52.864 11.016 53.781 11.735 C 54.693 12.453 49.413 24.927 49.413 24.927 C 49.413 24.927 59.223 23.45 60.334 24.927 C 61.717 26.773 55.965 33.722 55.965 33.722 C 59.501 38.048 60.378 64.318 60.378 64.318 Z M 37.669 59.506 C 39.671 59.506 41.186 59.019 42.21 58.044 C 43.235 57.069 43.746 55.482 43.746 53.283 L 43.746 44.006 C 43.746 41.854 43.234 40.284 42.21 39.296 C 41.186 38.312 39.671 37.818 37.669 37.818 L 18.691 37.818 C 18.173 37.818 17.79 37.922 17.541 38.126 C 17.294 38.329 17.171 38.704 17.171 39.245 L 17.171 41.966 C 17.171 42.509 17.294 42.872 17.541 43.053 C 17.79 43.235 18.173 43.325 18.691 43.325 L 35.946 43.325 C 36.217 43.325 36.413 43.41 36.537 43.581 C 36.661 43.75 36.723 43.938 36.723 44.141 L 36.723 53.283 C 36.723 53.512 36.661 53.686 36.537 53.811 C 36.413 53.936 36.217 53.997 35.946 53.997 L 21.461 53.997 C 20.944 53.997 20.561 54.101 20.313 54.305 C 20.062 54.507 19.939 54.883 19.939 55.426 L 19.939 58.145 C 19.939 58.69 20.062 59.051 20.313 59.233 C 20.561 59.414 20.944 59.504 21.461 59.504 L 37.669 59.504 L 37.669 59.506 Z M 37.802 34.488 C 38.388 34.488 38.783 34.363 38.985 34.114 C 39.187 33.888 39.288 33.526 39.288 33.027 L 39.288 30.579 C 39.288 29.922 39.187 29.491 38.985 29.288 C 38.783 29.085 38.388 28.983 37.802 28.983 L 23.048 28.983 C 22.507 28.983 22.136 29.085 21.935 29.288 C 21.731 29.491 21.63 29.922 21.63 30.579 L 21.63 33.027 C 21.63 33.526 21.731 33.888 21.935 34.114 C 22.137 34.363 22.507 34.488 23.048 34.488 L 37.802 34.488 Z" fill="#94a3ff" style=""/>
</svg>