<?xml version="1.0" encoding="utf-8"?>
<svg width="261" height="66" viewBox="0 0 261 66" fill="none" xmlns="http://www.w3.org/2000/svg" xmlns:xlink="http://www.w3.org/1999/xlink">
  <symbol id="logo-symbol-wordmark">
    <path fill="#94A3FC" d="M 45.572 0.319 C 43.47 0.811 39.93 5.747 35.071 14.919 C 25.098 15.315 17.072 18.438 11.238 24.261 C 1.937 33.545 0.264 47.419 0.264 56.197 C 0.264 60.836 0.73 64.05 0.785 64.416 C 0.955 65.474 2.398 65.978 3.384 65.324 C 3.835 65.025 4.071 64.544 4.002 64.058 C 3.987 63.972 3.547 60.918 3.547 56.419 C 3.547 48.049 5.071 34.673 13.704 26.062 C 19.119 20.662 26.679 17.827 36.177 17.635 C 36.803 17.623 37.363 17.304 37.619 16.817 C 40.34 11.626 43.868 5.787 45.741 3.705 C 46.617 6.422 47.533 13.66 47.972 19.965 C 48.042 20.979 49.322 21.586 50.365 21.1 C 53.863 19.471 57.942 17.738 60.37 16.891 C 59.355 18.76 57.387 21.763 55.541 24.323 C 54.886 25.233 55.626 26.407 56.872 26.439 C 57.04 26.445 57.205 26.426 57.366 26.387 C 60.175 25.703 63.287 25.337 64.38 25.531 C 64.169 26.32 62.261 28.194 60.161 29.62 C 59.459 30.095 59.341 30.97 59.899 31.569 C 60.455 32.169 61.475 32.272 62.176 31.795 C 64.429 30.267 69.419 26.431 67.113 23.814 C 65.995 22.541 63.192 22.546 60.264 22.98 C 63.418 18.357 64.328 16.232 64.328 15.16 C 64.328 14.448 63.94 14.19 63.568 13.942 C 62.816 13.441 61.752 12.795 51.039 17.646 C 50.219 7.345 48.98 1.563 47.34 0.572 C 46.828 0.261 46.177 0.169 45.572 0.319 Z" style=""/>
    <g fill="currentColor" transform="matrix(1.231217, 0, 0, 1.259943, -12.137565, -18.803705)" style="">
      <path d="M23.101 66.827c-.458 0-.795-.08-1.014-.237-.221-.16-.331-.479-.331-.956v-2.387c0-.477.109-.806.331-.984.219-.18.557-.268 1.014-.268h12.798c.238 0 .413-.054.522-.164s.165-.264.165-.464v-8.022a.822.822 0 0 0-.165-.494c-.109-.149-.284-.223-.522-.223H20.653c-.458 0-.796-.079-1.015-.239-.219-.159-.328-.477-.328-.955v-2.386c0-.477.109-.807.328-.985s.557-.268 1.015-.268H37.42c1.77 0 3.108.432 4.011 1.299.906.864 1.359 2.24 1.359 4.13v8.144c0 1.93-.453 3.322-1.359 4.177-.903.855-2.242 1.283-4.011 1.283H23.101zm1.402-21.956c-.478 0-.806-.108-.984-.328-.179-.198-.269-.518-.269-.953v-2.148c0-.578.089-.955.269-1.134.179-.18.507-.268.984-.268h13.036c.518 0 .865.088 1.044.268.179.179.27.556.27 1.134v2.148c0 .436-.091.755-.27.953-.179.22-.526.328-1.044.328H24.503zM49.668 40.04h3.969c.317 0 .586.123.804.373.22.248.328.53.328.85v4.266h4.417c1.769 0 3.106.432 4.012 1.296.903.867 1.356 2.243 1.356 4.133v10.41c0 1.93-.453 3.322-1.356 4.177-.906.855-2.243 1.283-4.012 1.283h-1.911c-.457 0-.796-.08-1.014-.237-.219-.16-.328-.479-.328-.956v-2.387c0-.477.109-.806.328-.984.218-.18.557-.268 1.014-.268h.388c.239 0 .412-.054.522-.164s.164-.264.164-.464V51.075a.804.804 0 0 0-.164-.491c-.11-.149-.283-.225-.522-.225h-2.895v11.008c0 1.93-.452 3.322-1.356 4.177-.905.855-2.243 1.283-4.012 1.283h-2.029c-.457 0-.795-.08-1.013-.237-.22-.16-.329-.479-.329-.956v-2.387c0-.477.109-.806.329-.984.218-.18.556-.268 1.013-.268h.507c.24 0 .413-.054.522-.164.11-.11.164-.264.164-.464V50.359h-1.253c-.458 0-.795-.077-1.014-.237-.218-.159-.328-.477-.328-.955v-2.386c0-.479.11-.807.328-.985.219-.179.556-.268 1.014-.268h1.253v-4.266c0-.319.11-.602.329-.85.219-.249.478-.372.775-.372zm23.001 13.392c.058.358-.03.662-.27.91-.24.248-.537.362-.895.343h-3.61c-.496.02-.843-.061-1.044-.239-.198-.179-.336-.516-.417-1.014l-1.76-10.738c-.08-.498-.026-.83.164-1 .188-.169.522-.253.999-.253h3.641c.576 0 .953.084 1.132.253.179.17.308.502.388 1l1.672 10.738zM81.32 66.857c-1.771 0-3.104-.432-3.999-1.299-.895-.864-1.341-2.262-1.341-4.191v-7.458c0-1.889.446-3.265 1.341-4.13s2.228-1.298 3.999-1.298h.03v-7.279c.02-.298.145-.567.373-.805.229-.239.542-.357.938-.357h3.61c.358 0 .662.118.91.357.248.237.373.507.373.805v7.279h10.708c.479 0 .796.084.956.254.16.168.239.512.239 1.029v2.415c0 .479-.071.796-.209.955-.14.16-.468.24-.986.24H82.931c-.438 0-.658.198-.658.595v7.397c0 .399.22.598.658.598h15.332c.518 0 .846.08.986.239.138.159.209.477.209.954v2.416c0 .518-.08.86-.239 1.028-.16.171-.477.255-.956.255H81.32zm15.511-22.166c0 .319-.108.598-.328.837-.218.237-.507.358-.865.358H93.58c-.399 0-.712-.121-.94-.358a1.29 1.29 0 0 1-.373-.837v-4.594c.02-.297.145-.567.373-.804.229-.24.542-.358.94-.358h2.058c.358 0 .647.118.865.358.22.236.328.507.328.804v4.594zm5.491 0c0 .319-.11.598-.33.837-.218.237-.507.358-.865.358h-2.058c-.399 0-.711-.121-.94-.358a1.29 1.29 0 0 1-.373-.837v-4.594c.02-.297.145-.567.373-.804.229-.24.542-.358.94-.358h2.058c.358 0 .647.118.865.358.22.236.33.507.33.804v4.594zM128.174 66.827h-7.367c-1.771 0-3.108-.428-4.014-1.283-.903-.854-1.356-2.247-1.356-4.177v-5.249c0-.239-.054-.412-.164-.522-.11-.109-.282-.164-.522-.164h-2.208l-3.371 10.173c-.198.498-.397.834-.595 1.014-.201.179-.548.259-1.044.239h-3.641a1.102 1.102 0 0 1-.895-.343 1.074 1.074 0 0 1-.297-.91l7.995-24.342c.237-.498.446-.83.625-1.001.179-.168.457-.252.834-.252h4.357c.477 0 .761.084.85.252.09.171.045.503-.134 1.001l-3.104 9.336h2.148c1.771 0 3.108.428 4.014 1.283.904.854 1.356 2.247 1.356 4.176v5.31c0 .2.054.354.164.464s.285.164.522.164h5.847c.458 0 .796.088 1.016.268.218.179.328.508.328.984v2.387c0 .478-.11.796-.328.956-.22.156-.559.236-1.016.236z"/>
    </g>
    <g opacity=".75" fill="currentColor" transform="matrix(0.770489, 0, 0, 1, 43.304771, -1.719812)" style="">
      <path d="M151.247 66.86c-2.242 0-3.367-1.432-3.367-4.306v-6.189a.83.83 0 0 1 .242-.605.8.8 0 0 1 .589-.235.83.83 0 0 1 .596.235.842.842 0 0 1 .241.605v5.988c0 1.072.167 1.848.507 2.338.339.488.905.728 1.695.728.544 0 1.051-.141 1.508-.431.466-.285.961-.757 1.5-1.412a.397.397 0 0 0 .094-.259v-6.952c0-.243.086-.44.25-.605a.843.843 0 0 1 .594-.235c.223 0 .423.077.581.235.158.165.24.362.24.605v9.559a.657.657 0 0 1-.2.478.646.646 0 0 1-.484.201.695.695 0 0 1-.507-.201.75.75 0 0 1-.232-.478l-.077-1.065c-.018-.011-.031-.021-.054-.021-.017 0-.032.011-.05.021-.562.656-1.127 1.154-1.714 1.495-.579.338-1.233.506-1.952.506zM174.383 66.362a.783.783 0 0 1-.568.24.78.78 0 0 1-.572-.24.771.771 0 0 1-.243-.559V51.076c0-.216.084-.4.243-.564a.786.786 0 0 1 .572-.24c.219 0 .407.082.568.24.162.164.24.349.24.564v10.478c0 .012.013.02.03.02a.077.077 0 0 0 .053-.02l4.326-5.312a1.837 1.837 0 0 1 1.505-.718c.183 0 .317.08.391.25.071.167.055.317-.05.45l-3.009 3.605a.213.213 0 0 0-.016.262l3.625 5.73a.49.49 0 0 1 .1.282.442.442 0 0 1-.08.24.465.465 0 0 1-.442.258c-.6 0-1.063-.258-1.38-.78l-2.789-4.565c-.049-.083-.109-.092-.178-.023l-1.981 2.324a.382.382 0 0 0-.104.258v1.988a.758.758 0 0 1-.241.559zM199.462 66.86c-.938 0-1.706-.271-2.313-.818-.612-.546-.915-1.309-.915-2.285 0-1.187.533-2.105 1.603-2.755 1.069-.647 2.779-1.102 5.129-1.369.109-.015.154-.076.145-.182-.017-1.888-.798-2.826-2.344-2.826-.908 0-1.851.286-2.808.862a.645.645 0 0 1-.498.076.604.604 0 0 1-.404-.278.7.7 0 0 1-.071-.528.666.666 0 0 1 .312-.416c1.269-.73 2.514-1.099 3.727-1.099 1.298 0 2.246.398 2.848 1.191.597.794.899 1.894.899 3.299v6.191a.653.653 0 0 1-.196.478.663.663 0 0 1-.483.201.714.714 0 0 1-.502-.201.787.787 0 0 1-.26-.478l-.06-.644c0-.025-.013-.039-.029-.039a.193.193 0 0 0-.073.019c-1.271 1.068-2.507 1.601-3.707 1.601zm.459-1.34a3.39 3.39 0 0 0 1.513-.354c.49-.23 1.01-.597 1.573-1.088a.36.36 0 0 0 .103-.264v-2.923c0-.096-.035-.141-.103-.141h-.042c-1.841.227-3.155.573-3.936 1.033-.777.462-1.17 1.084-1.17 1.872 0 .63.19 1.095.567 1.404.386.306.879.461 1.495.461zM224.989 66.86c-1.421 0-2.537-.503-3.359-1.519-.826-1.018-1.232-2.434-1.232-4.252 0-1.747.474-3.158 1.418-4.234.956-1.078 2.084-1.613 3.408-1.613.591 0 1.117.096 1.584.291.472.193.961.505 1.482.93.03.013.053.013.071 0a.065.065 0 0 0 .03-.06l-.061-1.785v-3.525c0-.225.079-.417.243-.581a.786.786 0 0 1 .575-.24c.229 0 .427.082.594.24.169.164.25.356.25.581v14.831a.632.632 0 0 1-.209.478.684.684 0 0 1-.493.201.809.809 0 0 1-.511-.189.689.689 0 0 1-.251-.489l-.075-.644c0-.013-.011-.021-.022-.021-.014 0-.025.008-.04.021-1.071 1.053-2.205 1.579-3.402 1.579zm.338-1.4c.973 0 1.933-.494 2.885-1.483a.325.325 0 0 0 .119-.26v-5.691a.314.314 0 0 0-.119-.241c-.896-.759-1.804-1.141-2.727-1.141-.945 0-1.745.415-2.384 1.253-.643.834-.961 1.895-.961 3.178 0 1.36.281 2.432.839 3.217.563.777 1.344 1.168 2.348 1.168zM254.466 65.29c-.999 1.05-2.201 1.57-3.616 1.57-1.421 0-2.619-.521-3.606-1.57-.989-1.045-1.487-2.447-1.487-4.2 0-1.786.498-3.212 1.487-4.264.987-1.057 2.19-1.584 3.617-1.584 1.42 0 2.626.527 3.616 1.584.985 1.052 1.483 2.478 1.483 4.264 0 1.752-.5 3.155-1.494 4.2zm-6.041-1.022c.628.811 1.439 1.21 2.436 1.21.994 0 1.805-.402 2.431-1.218.633-.817.946-1.874.946-3.171 0-1.32-.313-2.394-.946-3.215-.626-.819-1.437-1.23-2.431-1.23-.996 0-1.808.411-2.436 1.23-.632.821-.944 1.895-.944 3.215 0 1.312.312 2.369.944 3.179zM273.167 66.362a.799.799 0 0 1-.583.24.823.823 0 0 1-.591-.24.775.775 0 0 1-.254-.58v-9.578c0-.189.07-.349.201-.482a.658.658 0 0 1 .485-.197.72.72 0 0 1 .497.19.696.696 0 0 1 .244.489l.097.898c0 .03.011.044.029.044a.07.07 0 0 0 .052-.021c.612-.605 1.214-1.065 1.802-1.393a3.857 3.857 0 0 1 1.908-.491c2.256 0 3.385 1.446 3.385 4.328v6.193a.828.828 0 0 1-.244.59.78.78 0 0 1-.589.249.82.82 0 0 1-.602-.249.807.807 0 0 1-.251-.59v-5.994c0-1.068-.171-1.849-.521-2.343-.35-.495-.897-.738-1.659-.738-.55 0-1.054.132-1.506.407-.455.273-.976.707-1.562 1.292a.345.345 0 0 0-.102.264v7.131a.797.797 0 0 1-.236.581z"/>
    </g>
  </symbol>
  <use transform="matrix(1, 0, 0, 1, 0, 0)" xlink:href="#logo-symbol-wordmark"/>
</svg>